PathFileType	4	(X/Y/Z)	./resultDataOpenSim/trcMotMarkerGrf/sub06/qtm-03-08.trc
DataRate	CameraRate	NumFrames	NumMarkers	Units	OrigDataRate	OrigDataStartFrame	OrigNumFrames
250.000000	250.000000	7	24	m	250.000000	449	512
Frame#	Time	L.Toe.Tip			R.Toe.Tip			L.Ankle.Lat			R.Ankle.Lat			L.Ankle.Med			R.Ankle.Med			L.Heel			R.Heel			L.Knee.Lat			R.Knee.Lat			L.Knee.Med			R.Knee.Med			L.Thigh.Upper			R.Thigh.Upper			L.ASIS			R.ASIS			V.Sacral			L.Acromium			R.Acromium			C7			L.Elbow			R.Elbow			L.Wrist.Lat			R.Wrist.Lat
		X1	Y1	Z1	X2	Y2	Z2	X3	Y3	Z3	X4	Y4	Z4	X5	Y5	Z5	X6	Y6	Z6	X7	Y7	Z7	X8	Y8	Z8	X9	Y9	Z9	X10	Y10	Z10	X11	Y11	Z11	X12	Y12	Z12	X13	Y13	Z13	X14	Y14	Z14	X15	Y15	Z15	X16	Y16	Z16	X17	Y17	Z17	X18	Y18	Z18	X19	Y19	Z19	X20	Y20	Z20	X21	Y21	Z21	X22	Y22	Z22	X23	Y23	Z23	X24	Y24	Z24

449	1.792	1.6529892	0.033789162	0.0082975245	1.1000347	0.083508945	0.15557726	1.5287384	0.066600529	-0.022741605	1.0964768	0.22082934	0.19239281	1.5267111	0.081942252	0.063166239	1.1374584	0.21192759	0.11307019	1.4520265	0.039241536	0.01579306	1.0731516	0.26723517	0.12962462	1.584714	0.43857657	-0.035672942	1.4326305	0.40290811	0.23301123	1.5530433	0.43413088	0.080635036	1.4363156	0.38188319	0.098119769	1.4655564	0.81709541	-0.10719913	1.3882834	0.76625099	0.221364	1.5207434	0.85716593	-0.048996176	1.489582	0.83399694	0.19438198	1.3137216	0.91297407	0.061452772	1.4142282	1.3208809	-0.12596278	1.4117931	1.3173925	0.23757124	1.3335115	1.3543893	0.053704431	1.3375307	1.0118669	-0.16619167	1.3827006	0.99645724	0.29883415	1.4512935	0.79895157	-0.20976549	1.5720601	0.84011843	0.29866335
450	1.796	1.6529879	0.033780094	0.0082866055	1.116068	0.08464169	0.15616782	1.5287162	0.066647103	-0.02285618	1.1094807	0.22212921	0.19224107	1.5269802	0.082120032	0.063121909	1.1504234	0.21375443	0.11298885	1.4520056	0.039327988	0.015822121	1.0846961	0.26768878	0.12935439	1.58643	0.43838515	-0.035574676	1.4444211	0.40512376	0.23379121	1.5543983	0.43427397	0.080659466	1.4481304	0.38428037	0.098616503	1.4701607	0.81795187	-0.10734391	1.3953085	0.76764711	0.22120713	1.5262656	0.85817957	-0.049173415	1.4951599	0.83571503	0.1945174	1.319653	0.91460468	0.061077713	1.4205006	1.322476	-0.12606394	1.4170539	1.3190309	0.23752598	1.339375	1.3559017	0.053394815	1.3455376	1.0128535	-0.16682559	1.387291	0.99812711	0.29794146	1.461967	0.80102136	-0.20910344	1.5735346	0.83908004	0.29963692
451	1.8	1.6529814	0.03376507	0.0082865199	1.1323758	0.085608774	0.15684743	1.5287103	0.066746182	-0.023016196	1.1224033	0.22321338	0.19207928	1.5271241	0.082242884	0.063107356	1.1634965	0.2153875	0.1129225	1.4519844	0.039420507	0.015860837	1.0964316	0.2677559	0.12900649	1.5881192	0.4382095	-0.035416193	1.456147	0.40748501	0.23453782	1.555718	0.4344538	0.080738255	1.4601554	0.38667957	0.099172196	1.4747821	0.81877623	-0.10753333	1.4023107	0.76910473	0.22113963	1.5317497	0.85918747	-0.049388989	1.500806	0.83741248	0.19461264	1.3256553	0.91622136	0.060708788	1.4267187	1.3240927	-0.12613831	1.4222863	1.3206522	0.23749876	1.3452203	1.3573891	0.05314042	1.3535526	1.0138515	-0.1674357	1.3917678	0.99987209	0.29714142	1.4726048	0.8031626	-0.20841204	1.5749726	0.83816555	0.30058464
452	1.804	1.6529607	0.033750298	0.0082976928	1.1489804	0.086468123	0.15757585	1.5287257	0.066853426	-0.023115993	1.1352104	0.22402161	0.19191259	1.5271617	0.082330569	0.063119438	1.1767088	0.21671711	0.11286668	1.4519614	0.039516392	0.015891476	1.1084298	0.26747607	0.12853918	1.5898125	0.43803995	-0.035209948	1.4678458	0.40997565	0.23522222	1.5569495	0.43463735	0.080860227	1.472319	0.38912681	0.099754514	1.4796182	0.81954704	-0.10778172	1.4092863	0.7706243	0.22116734	1.5371853	0.8601878	-0.04964295	1.5064784	0.83909292	0.19465411	1.3316767	0.91783398	0.060353272	1.4328904	1.3257448	-0.12618516	1.4274859	1.32226	0.23748998	1.3510477	1.358868	0.052919944	1.3615774	1.0148641	-0.1680438	1.3959948	1.0017134	0.29644693	1.4832295	0.80537725	-0.20769061	1.5763139	0.83735114	0.30156546
453	1.808	1.6529312	0.03374075	0.008319224	1.1658802	0.087258389	0.15833994	1.5287419	0.06693657	-0.023134893	1.1480302	0.22452118	0.1917394	1.5271553	0.082403137	0.063151359	1.1900948	0.21765537	0.11280423	1.4519355	0.039614622	0.015867092	1.1206219	0.26692164	0.1280681	1.5915271	0.43787508	-0.034968134	1.4795765	0.41257122	0.23582044	1.5579857	0.43479102	0.080993794	1.4844749	0.39163051	0.10033582	1.4845781	0.82026021	-0.10804091	1.416232	0.77220581	0.22129521	1.5425675	0.8611866	-0.049926433	1.5121518	0.84076381	0.19463529	1.337626	0.91941458	0.060037098	1.4390215	1.3274411	-0.12620394	1.4326708	1.3238589	0.23749036	1.3568615	1.3603561	0.052715822	1.3696166	1.0158964	-0.16867037	1.3998736	1.0036385	0.29586029	1.4938703	0.80765738	-0.20694311	1.5775399	0.83662948	0.30260643
454	1.812	1.6529078	0.033736587	0.0083485218	1.1829549	0.087945461	0.15917497	1.5287378	0.066994047	-0.023120807	1.1610805	0.22472033	0.19155594	1.5271617	0.082472555	0.06319666	1.2036777	0.21819614	0.11273635	1.4519058	0.039716276	0.015771649	1.1329616	0.26612692	0.12766952	1.5932227	0.43772102	-0.034701584	1.4913037	0.41524889	0.23633904	1.5587027	0.43489156	0.081098606	1.4964964	0.39417095	0.10091499	1.4895061	0.8209334	-0.10827486	1.4231448	0.77384896	0.22152766	1.5479397	0.86219736	-0.050240611	1.5178349	0.84242969	0.19455541	1.3434156	0.92092421	0.05977621	1.4451172	1.329168	-0.12619712	1.4378609	1.3254515	0.23748696	1.3626685	1.3618555	0.052527189	1.3776742	1.0169486	-0.16931509	1.4034443	1.005597	0.29536199	1.5045401	0.80998744	-0.20617484	1.5786834	0.83601221	0.30369375
455	1.816	1.6529015	0.033734797	0.0083828253	1.2000076	0.08844017	0.16014036	1.5287197	0.067045953	-0.023111324	1.1744678	0.2246404	0.19136035	1.5272057	0.082555054	0.063248596	1.2174509	0.21840159	0.11267092	1.451881	0.039826876	0.015677119	1.1455118	0.26508353	0.1272659	1.594829	0.43758775	-0.034420339	1.5029078	0.41799404	0.23680943	1.5591263	0.43494155	0.081161212	1.5083497	0.3967122	0.10147959	1.4942608	0.82158386	-0.10848702	1.4300207	0.77555362	0.22186977	1.5534112	0.86323066	-0.050610952	1.5235466	0.84409201	0.19441376	1.3490489	0.92235677	0.059555433	1.4511822	1.3308938	-0.12617009	1.4430709	1.3270316	0.23747234	1.3684731	1.363351	0.052362377	1.3857539	1.0180133	-0.16996706	1.4068798	1.0075406	0.29492425	1.5152703	0.81234784	-0.20539279	1.579777	0.83550252	0.3048056
